<?xml version="1.0" encoding="utf-8"?>
<!-- Generator: Adobe Illustrator 21.0.0, SVG Export Plug-In . SVG Version: 6.00 Build 0)  -->
<svg version="1.1" id="Layer_1" xmlns="http://www.w3.org/2000/svg" xmlns:xlink="http://www.w3.org/1999/xlink" x="0px" y="0px"
	 viewBox="0 0 810.5 158.5" style="enable-background:new 0 0 810.5 158.5;" xml:space="preserve">
<style type="text/css">
	.st0{fill:#CF0146;}
	.st1{fill:#252C3F;}
</style>
<path class="st0" d="M589,55.9c-0.9-10.2-5.5-19.9-13.5-26.5c-11.4-9.5-24.9-9.8-39-9.7c-5,0-10.1-0.1-15.1,0.4
	c-12.1,1.3-22.5,7.5-30.1,16.9c7,2.9,13.9,6.4,20.6,9.7c-7.6,6.4-16.4,15-24,20.7c-1,0.7-0.4,0.6-1.7,0.4c-0.2,1.7-0.4,3.6-1.2,5.1
	c-0.9,3.7-1.1,7.5-1.2,11.3c2.3,0,4.9,0.3,7.1-0.3c12.2-3.1,25-16.9,35.8-23.7c1.2-5.9,1.5-11.9,2.2-17.9c10.6,0,23.4-2.6,31.6,5.7
	c3.8,3.8,5.3,9.2,5.1,14.5c-0.2,6.3-2.6,12.3-7.4,16.5c-7.2,6.4-17.9,6.1-26.9,5.4c-1.4-0.1-3.7,0-4.8-1c-0.1-1-0.3-2-0.5-3
	c-1.3,0.1-1.8,0.5-2.9,1.3c-6.8,4.6-12.9,10.4-19.3,15.5c-3.1,2.5-7.8,4.9-10.2,7.9c-0.5,0.6-0.5,0.7-0.8,1.3c0.7,1,0.9,0.9,2,1.3
	c4.6,2.5,9.7,4.3,14.7,6c0,0,0,0,0,0c-7.7,5.8-18.2,11.8-24.6,18.9c-3.7,4.1-5.6,9.4-9.7,13.8c2.8,0.3,5.6,0.5,8.4,0.5
	s5.6-0.1,8.4-0.4c10.4-1.1,20.3-5.5,26.8-13.8c5.6-7,9-18.4,8-27.3c6.5,0.1,13.1,0.3,19.5-0.2c12.8-1,25.3-7.3,33.5-17.2
	C587.3,79,590.1,67.5,589,55.9z M526.8,105.4L526.8,105.4L526.8,105.4L526.8,105.4z"/>
<path class="st1" d="M319.7,63c-5.9-8.1-15.5-12.7-25.3-14c-3.7-0.5-7.7-0.7-11.4-0.3c-13.2,1.3-24.9,7-33.6,17.2
	c-9.6,11.7-13.2,27.1-11.6,41.9c1.2,11,6.2,21.5,15,28.4c10.9,8.5,25.7,10.3,39.1,8.5c10.7-1.4,19.8-5.6,27.5-13.2
	c-2.4-3.6-5-7.1-7.7-10.6l-4.7-6.5c-4.1,5.8-10.1,8.8-17,9.9c-6.9,1.1-14.6,0.4-20.3-4c-5.1-3.9-7.6-9.4-8.3-15.7l63.8,0.1
	C327.4,90.6,328.7,75.2,319.7,63z M284.6,89.5l-22.2-0.1c1-3.3,2.3-6.7,4.1-9.6c3.8-6.4,9.2-9,16.1-10.7c5.4-0.4,10.9,0,15.2,3.8
	c4.9,4.3,5.7,10.4,6.1,16.6C297.5,89.6,291,89.5,284.6,89.5z"/>
<path class="st1" d="M26.3,23.5l76.8,0.1c-0.5,7.5-1.3,14.9-1.6,22.4l-51.8,0.1c-0.7,10-1.7,20-2.8,30c15.6,0.4,31.3,0,46.9,0l-2,21
	c0,0.7-0.1,1.3-0.2,2c-3.1,1.4-39.9,0.3-46.6,0.3c-1.5,14.5-3.1,29.1-4.2,43.7H14.9c1.9-14.5,3-29.2,4.4-43.8
	C21.8,74,24.3,48.8,26.3,23.5z"/>
<path class="st1" d="M387.7,48.7c1.9-0.1,3.8,0,5.6,0.1c8.2,0.5,16.5,3.8,21.9,10.2c3.8,4.4,5.8,10,6.6,15.7
	c1.2,9.3-0.6,19.4-1.5,28.7l-3.9,39.8H392c1.2-11.3,2.4-22.7,3.4-34c0.8-8.2,2.2-16.8,1.6-25c-0.2-3.1-0.7-6.1-2.5-8.7
	c-2.2-3.2-6.1-4.9-9.8-5.4c-5.5-0.8-10.5,1.3-14.9,4.3c-3.2,3.3-5.3,6.9-6.7,11.2c-2.9,9.2-3.1,19.7-3.8,29.3
	c-0.8,9.5-1.6,18.9-2.5,28.4h-24c0.3-10.1,1.7-20.4,2.6-30.4c1.7-20.6,3.8-41.2,6.2-61.8h17c0.8,2.6,1.8,5.2,2.7,7.8
	C369.7,52.3,377.1,49.5,387.7,48.7z"/>
<path class="st1" d="M207.4,50.5h24.7c-0.6,6.8-1.3,13.6-2,20.4L228,93c-1.5,15.1-2.6,31.5-14.6,42.4c-9,8.1-21.9,10.8-33.7,10.1
	c-10.3-0.6-20.8-3.8-27.8-11.9c-3.8-4.4-6.4-9.8-7.4-15.6c-1.7-9.8,0.2-20.7,1.2-30.5c1.2-12.3,2.7-24.7,3.5-37l24.4,0.1L170,88.4
	c-0.7,7-2,14.7-1.4,21.7c0.2,3,0.8,5.8,2.7,8.2c2.7,3.4,7.3,5.1,11.6,5.5c4.4,0.5,9-1.1,12.5-3.9c2.8-2.2,4.5-4.9,5.6-8.3
	c2.6-8,2.6-17.3,3.3-25.7C205.3,74.1,206.3,62.3,207.4,50.5z"/>
<path class="st0" d="M694.3,50.8l24,0.1c-0.4,6.2-1.2,12.3-1.7,18.5c-0.8,8.5-1.4,17-2.1,25.4c-1.3,15.2-2.1,30.2-14.4,40.9
	c-9.7,8.5-22.9,10.6-35.5,9.8c-9.3-0.7-18.9-4.1-25-11.5c-3.3-4-5.4-8.8-6.2-13.9c-1.8-10.6,0.3-22.7,1.3-33.4l3.4-35.9
	c7.9-0.1,15.9,0,23.8,0c-1.4,9-1.6,18.5-2.5,27.6c-1,10.7-3.4,22.7-2.5,33.3c0.2,2.7,0.8,5,2.4,7.3c2.2,3.2,5.6,4.9,9.4,5.4
	c5.1,0.8,10.7-0.6,14.7-3.8c2.7-2.2,4.1-4.8,5-8.1c2.2-7.3,2-15.7,2.6-23.3L694.3,50.8z"/>
<path class="st0" d="M762.3,48.7c13.2-1.1,28.1,3.7,38.6,11.5c-3.7,5.8-7.1,11.7-10.3,17.9c-7.7-5.1-15.9-9.4-25.4-9.6
	c-3.5-0.1-7.4,0.1-10,2.8c-1.3,1.4-2.1,3.2-2.1,5.1c0.3,7.7,19.6,11.7,25.3,14c4,1.6,8,3.6,11.1,6.5c4.7,4.2,6.8,9.7,6.9,15.9
	c0.2,8.1-2.7,16.9-8.5,22.7c-8.9,9-21.5,10.6-33.5,10.5c-14.1-1.2-25.5-5.9-35.9-15.5c3.9-5.4,7.5-11.2,11.2-16.8
	c8.7,7.6,17.9,12.1,29.6,11.8c4.9-0.2,8.3-1.4,11.7-5.1c1-1.1,2-2.5,1.7-4.1c-1.1-6.9-29.1-12.5-36.3-18.1c-4.6-3.5-7.5-8.7-8-14.4
	c-0.8-8.1,1.1-16.3,6.4-22.6C741.7,52.9,752.1,49.7,762.3,48.7z"/>
<path class="st1" d="M448.2,21.4c8.3,2.7,16.2,5.9,24.2,9.6c-0.6,6.7-1.2,13.4-1.9,20.1h17.7c-0.2,5.7-1.1,11.3-1.9,16.9
	c-0.3,1.7-0.4,3.6-1.2,5.1c-5.4,0-10.8-0.1-16.3-0.2c-0.6,8-1.3,15.9-2.2,23.9c-0.5,5.4-1.5,11.2-1.1,16.6c0.2,2.4,0.7,5.5,2.3,7.4
	c3.2,3.6,10.5,3.3,14.9,3.2c-1,6.8-1.9,13.3-7.2,18.2c-2.8,2.5-6.1,3.7-9.8,3.5c-7.2-0.3-15-4.3-19.6-9.7c-2.8-3.2-4.7-7-5.6-11.1
	c-2.4-11,2.1-39,3-51.9c-5.2-0.5-10.5-0.3-15.7-0.3c1.4-7.3,1.9-14.8,2.4-22.2l14.9,0.2C446.4,40.9,446.8,31.1,448.2,21.4z"/>
<path class="st1" d="M114.1,14.1h25.1c-3,20.8-4.5,42-6.3,62.9l-6.4,66.1c-8.2,0.1-16.4,0-24.6,0c0.8-14.9,2.6-29.8,4-44.6
	C108.4,70.3,111.2,42.2,114.1,14.1z"/>
<path class="st0" d="M603,14.5h24.1l-12.2,129h-24.1C595.9,100.6,598.3,57.4,603,14.5z"/>
</svg>
